<svg xmlns="http://www.w3.org/2000/svg" xmlns:xlink="http://www.w3.org/1999/xlink" width="500" zoomAndPan="magnify" viewBox="0 0 375 374.999991" height="500" preserveAspectRatio="xMidYMid meet" version="1.0"><defs><clipPath id="5fa846d873"><path d="M 85.972656 75.222656 L 375 75.222656 L 375 370.722656 L 85.972656 370.722656 Z M 85.972656 75.222656 " clip-rule="nonzero"/></clipPath><clipPath id="da970ae614"><path d="M 0 4.140625 L 151.496094 4.140625 L 151.496094 370.890625 L 0 370.890625 Z M 0 4.140625 " clip-rule="nonzero"/></clipPath><clipPath id="7964401072"><path d="M 45 0.558594 L 151 0.558594 L 151 114 L 45 114 Z M 45 0.558594 " clip-rule="nonzero"/></clipPath><clipPath id="8d4d686db9"><path d="M 0 312 L 55 312 L 55 366.855469 L 0 366.855469 Z M 0 312 " clip-rule="nonzero"/></clipPath><clipPath id="988d16057f"><rect x="0" width="152" y="0" height="367"/></clipPath><clipPath id="5cd01a874d"><path d="M 16.226562 111.925781 L 67.976562 111.925781 L 67.976562 163.675781 L 16.226562 163.675781 Z M 16.226562 111.925781 " clip-rule="nonzero"/></clipPath><clipPath id="665c8c7cd0"><path d="M 82.902344 215.894531 L 134.652344 215.894531 L 134.652344 267.644531 L 82.902344 267.644531 Z M 82.902344 215.894531 " clip-rule="nonzero"/></clipPath><clipPath id="c7238d11f9"><path d="M 0 318.96875 L 51.75 318.96875 L 51.75 370.71875 L 0 370.71875 Z M 0 318.96875 " clip-rule="nonzero"/></clipPath><clipPath id="62bc0823ef"><path d="M 99.832031 4.101562 L 151.582031 4.101562 L 151.582031 55.851562 L 99.832031 55.851562 Z M 99.832031 4.101562 " clip-rule="nonzero"/></clipPath></defs><g clip-path="url(#5fa846d873)"><path fill="#253238" d="M 3.765625 467.75 L 102.761719 234.773438 C 103.75 232.449219 105.917969 230.84375 108.429688 230.570312 C 110.945312 230.300781 113.402344 231.410156 114.863281 233.472656 L 180.640625 326.375 L 233.914062 178.542969 C 234.71875 176.304688 236.609375 174.632812 238.929688 174.109375 C 241.253906 173.585938 243.679688 174.28125 245.367188 175.953125 L 295.730469 225.785156 L 348.929688 119.386719 C 350.648438 115.945312 354.835938 114.554688 358.277344 116.273438 C 361.71875 117.992188 363.113281 122.179688 361.390625 125.621094 L 303.894531 240.613281 C 302.898438 242.613281 301 244.007812 298.796875 244.375 C 296.589844 244.730469 294.351562 244.019531 292.765625 242.449219 L 243.324219 193.53125 L 189.226562 343.660156 C 188.34375 346.097656 186.179688 347.851562 183.609375 348.199219 C 181.03125 348.546875 178.480469 347.4375 176.984375 345.320312 L 110.703125 251.714844 L 16.59375 473.199219 C 15.464844 475.851562 12.886719 477.445312 10.175781 477.445312 C 9.265625 477.445312 8.34375 477.265625 7.453125 476.886719 C 3.914062 475.382812 2.261719 471.292969 3.765625 467.75 Z M 434.078125 528.847656 C 434.199219 528.667969 434.28125 528.476562 434.382812 528.289062 C 434.496094 528.078125 434.625 527.875 434.71875 527.648438 C 434.816406 527.410156 434.875 527.164062 434.945312 526.917969 C 435 526.726562 435.074219 526.546875 435.113281 526.347656 C 435.292969 525.449219 435.292969 524.519531 435.113281 523.617188 C 435.074219 523.421875 435 523.238281 434.945312 523.046875 C 434.875 522.800781 434.816406 522.554688 434.71875 522.316406 C 434.625 522.089844 434.496094 521.886719 434.378906 521.675781 C 434.28125 521.488281 434.199219 521.296875 434.078125 521.117188 C 433.824219 520.738281 433.539062 520.386719 433.21875 520.066406 C 433.214844 520.0625 433.214844 520.058594 433.210938 520.058594 L 401.960938 488.804688 C 399.238281 486.082031 394.828125 486.082031 392.105469 488.804688 C 389.382812 491.523438 389.382812 495.9375 392.105469 498.65625 L 411.464844 518.015625 L -40.351562 518.015625 L -40.351562 66.203125 L -20.992188 85.558594 C -19.632812 86.921875 -17.847656 87.601562 -16.066406 87.601562 C -14.28125 87.601562 -12.5 86.921875 -11.136719 85.558594 C -8.417969 82.839844 -8.417969 78.429688 -11.136719 75.707031 L -42.390625 44.453125 C -42.417969 44.425781 -42.453125 44.410156 -42.480469 44.382812 C -42.78125 44.089844 -43.101562 43.820312 -43.453125 43.585938 C -43.625 43.472656 -43.816406 43.390625 -43.996094 43.292969 C -44.214844 43.171875 -44.421875 43.042969 -44.652344 42.945312 C -44.878906 42.855469 -45.113281 42.800781 -45.34375 42.730469 C -45.546875 42.671875 -45.742188 42.59375 -45.953125 42.550781 C -46.375 42.46875 -46.804688 42.429688 -47.234375 42.421875 C -47.261719 42.421875 -47.289062 42.414062 -47.316406 42.414062 C -47.347656 42.414062 -47.371094 42.421875 -47.402344 42.421875 C -47.832031 42.425781 -48.257812 42.46875 -48.679688 42.550781 C -48.890625 42.59375 -49.085938 42.671875 -49.289062 42.730469 C -49.523438 42.800781 -49.757812 42.855469 -49.980469 42.945312 C -50.210938 43.042969 -50.421875 43.171875 -50.636719 43.292969 C -50.820312 43.390625 -51.007812 43.472656 -51.183594 43.585938 C -51.53125 43.820312 -51.855469 44.089844 -52.15625 44.382812 C -52.183594 44.410156 -52.214844 44.425781 -52.242188 44.453125 L -83.496094 75.707031 C -86.21875 78.429688 -86.21875 82.839844 -83.496094 85.558594 C -80.773438 88.28125 -76.363281 88.28125 -73.644531 85.558594 L -54.285156 66.203125 L -54.285156 524.984375 C -54.285156 528.832031 -51.164062 531.949219 -47.316406 531.949219 L 411.464844 531.949219 L 392.105469 551.308594 C 389.382812 554.027344 389.382812 558.441406 392.105469 561.160156 C 393.464844 562.523438 395.25 563.203125 397.03125 563.203125 C 398.816406 563.203125 400.597656 562.523438 401.960938 561.160156 L 433.210938 529.910156 C 433.214844 529.90625 433.214844 529.902344 433.21875 529.898438 C 433.539062 529.578125 433.824219 529.226562 434.078125 528.847656 Z M 434.078125 528.847656 " fill-opacity="1" fill-rule="nonzero"/></g><path fill="#253238" d="M 109.175781 217.871094 C 98.351562 217.871094 89.550781 226.675781 89.550781 237.5 C 89.550781 248.320312 98.351562 257.125 109.175781 257.125 C 119.996094 257.125 128.800781 248.320312 128.800781 237.5 C 128.800781 226.675781 119.996094 217.871094 109.175781 217.871094 Z M 109.175781 217.871094 " fill-opacity="1" fill-rule="nonzero"/><path fill="#253238" d="M 240.46875 161.277344 C 229.644531 161.277344 220.839844 170.082031 220.839844 180.902344 C 220.839844 191.726562 229.644531 200.53125 240.46875 200.53125 C 251.289062 200.53125 260.09375 191.726562 260.09375 180.902344 C 260.09375 170.082031 251.289062 161.277344 240.46875 161.277344 Z M 240.46875 161.277344 " fill-opacity="1" fill-rule="nonzero"/><path fill="#253238" d="M 297.664062 217.871094 C 286.84375 217.871094 278.039062 226.675781 278.039062 237.496094 C 278.039062 248.320312 286.84375 257.125 297.664062 257.125 C 308.488281 257.125 317.289062 248.320312 317.289062 237.496094 C 317.289062 226.675781 308.484375 217.871094 297.664062 217.871094 Z M 297.664062 217.871094 " fill-opacity="1" fill-rule="nonzero"/><path fill="#253238" d="M 355.160156 102.878906 C 344.339844 102.878906 335.535156 111.683594 335.535156 122.503906 C 335.535156 133.324219 344.339844 142.128906 355.160156 142.128906 C 365.984375 142.128906 374.789062 133.324219 374.789062 122.503906 C 374.789062 111.683594 365.984375 102.878906 355.160156 102.878906 Z M 355.160156 102.878906 " fill-opacity="1" fill-rule="nonzero"/><path fill="#253238" d="M 182.671875 321.667969 C 171.847656 321.667969 163.042969 330.472656 163.042969 341.296875 C 163.042969 352.117188 171.847656 360.921875 182.671875 360.921875 C 193.492188 360.921875 202.296875 352.117188 202.296875 341.296875 C 202.296875 330.472656 193.492188 321.667969 182.671875 321.667969 Z M 182.671875 321.667969 " fill-opacity="1" fill-rule="nonzero"/><g clip-path="url(#da970ae614)"><g transform="matrix(1, 0, 0, 1, 0, 4)"><g clip-path="url(#988d16057f)"><path fill="#f2d43d" d="M 41.691406 318.242188 C 58.683594 298.972656 77.453125 277.925781 94.441406 258.648438 C 94.457031 258.660156 94.476562 258.667969 94.492188 258.679688 C 94.761719 258.875 95.054688 259.0625 95.386719 259.226562 C 95.707031 259.414062 96.03125 259.5625 96.355469 259.683594 C 99.515625 261.113281 102.921875 261.949219 106.363281 262.191406 C 87.929688 283.097656 67.722656 305.78125 49.289062 326.683594 C 47.34375 323.390625 44.75 320.492188 41.691406 318.242188 Z M 41.691406 318.242188 " fill-opacity="1" fill-rule="nonzero"/><path fill="#f2d43d" d="M 41.792969 160.660156 C 45.988281 160.363281 50.027344 159.066406 53.597656 156.988281 C 69.039062 174.507812 86.257812 193.800781 101.703125 211.320312 C 97.867188 212.226562 94.242188 213.9375 91.164062 216.425781 C 75.296875 198.425781 57.65625 178.65625 41.792969 160.660156 Z M 41.792969 160.660156 " fill-opacity="1" fill-rule="nonzero"/><g clip-path="url(#7964401072)"><path fill="#f2d43d" d="M 102.582031 44.097656 C 99.246094 39.695312 97.1875 34.183594 96.847656 27.914062 C 96.027344 12.675781 109.816406 1.660156 123.855469 0.90625 C 139.101562 0.0859375 150.113281 13.875 150.867188 27.914062 C 151.65625 42.542969 138.976562 53.25 125.542969 54.757812 C 125.027344 54.878906 124.484375 54.957031 123.859375 54.921875 C 123.246094 54.957031 122.710938 54.882812 122.203125 54.765625 C 118.148438 54.339844 114.417969 53.210938 111.152344 51.449219 C 93.074219 71.957031 74.105469 93.351562 56.027344 113.855469 C 52.902344 111.457031 49.257812 109.742188 45.273438 108.996094 C 64.078125 87.65625 83.777344 65.433594 102.582031 44.097656 Z M 123.855469 12.210938 C 103.601562 11.121094 103.707031 42.53125 123.855469 43.617188 C 144.097656 42.527344 144.097656 13.300781 123.855469 12.210938 Z M 123.855469 12.210938 " fill-opacity="1" fill-rule="nonzero"/></g><path fill="#f2d43d" d="M 37.578125 161.417969 C 37.367188 161.390625 37.160156 161.355469 36.953125 161.3125 C 36.667969 161.300781 36.378906 161.273438 36.078125 161.214844 C 22.484375 158.65625 12.910156 146.074219 14.066406 132.292969 C 15.246094 118.277344 27.183594 108.074219 40.941406 107.691406 C 42.734375 107.640625 44.472656 107.792969 46.15625 108.105469 C 50.140625 108.855469 53.789062 110.570312 56.910156 112.96875 C 63.828125 118.289062 68.183594 126.96875 67.914062 135.992188 C 67.632812 145.394531 62.136719 153.421875 54.484375 157.878906 C 50.914062 159.957031 46.878906 161.253906 42.679688 161.550781 C 40.996094 161.667969 39.292969 161.632812 37.578125 161.417969 Z M 56.609375 135.992188 C 57.449219 126.636719 49.910156 119.449219 40.945312 118.996094 C 32.871094 118.585938 26.792969 125.246094 25.339844 132.621094 C 23.632812 141.269531 30.675781 148.429688 38.476562 150.1875 C 47.433594 150.910156 55.753906 145.507812 56.609375 135.992188 Z M 56.609375 135.992188 " fill-opacity="1" fill-rule="nonzero"/><path fill="#f2d43d" d="M 94.496094 260.113281 C 94.164062 259.949219 93.871094 259.761719 93.601562 259.566406 C 93.585938 259.554688 93.570312 259.546875 93.554688 259.539062 C 81.160156 251.691406 77.175781 236.113281 84.0625 223.078125 C 85.65625 220.0625 87.789062 217.546875 90.273438 215.539062 C 93.351562 213.050781 96.976562 211.339844 100.8125 210.433594 C 107.675781 208.804688 115.210938 209.734375 121.480469 213.332031 C 133.921875 220.46875 137.273438 236.144531 131.628906 248.625 C 126.933594 259 116.066406 263.84375 105.472656 263.082031 C 102.035156 262.839844 98.625 262 95.464844 260.574219 C 95.144531 260.449219 94.820312 260.304688 94.496094 260.113281 Z M 121.324219 243.949219 C 125.300781 237.242188 122.890625 228.175781 116.730469 223.710938 C 109.589844 218.535156 99.527344 220.5 94.523438 227.640625 C 89.035156 235.472656 92.332031 245.777344 100.199219 250.351562 C 108.035156 254.265625 116.9375 251.347656 121.324219 243.949219 Z M 121.324219 243.949219 " fill-opacity="1" fill-rule="nonzero"/><g clip-path="url(#8d4d686db9)"><path fill="#f2d43d" d="M 25.914062 366.449219 C 11.722656 366.050781 1 354.078125 0.164062 340.410156 C 0.128906 340.109375 0.105469 339.800781 0.117188 339.472656 C 0.105469 339.148438 0.128906 338.84375 0.164062 338.546875 C 0.996094 324.34375 11.722656 313.683594 25.914062 312.492188 C 32.121094 311.972656 37.894531 313.902344 42.578125 317.351562 C 45.636719 319.601562 48.230469 322.503906 50.175781 325.796875 C 53.007812 330.585938 54.476562 336.207031 54 341.878906 C 52.792969 356.25 40.113281 366.84375 25.914062 366.449219 Z M 42.730469 341.550781 C 44.71875 331.488281 35.152344 323.546875 25.914062 323.804688 C 17.648438 324.035156 11.640625 331.671875 11.421875 339.476562 C 11.648438 347.625 17.652344 354.449219 25.914062 355.140625 C 34.472656 355.859375 41.140625 349.601562 42.730469 341.550781 Z M 42.730469 341.550781 " fill-opacity="1" fill-rule="nonzero"/></g></g></g></g><g clip-path="url(#5cd01a874d)"><path fill="#f2d43d" d="M 68.152344 137.890625 C 68.152344 138.742188 68.109375 139.589844 68.027344 140.433594 C 67.945312 141.28125 67.820312 142.121094 67.652344 142.957031 C 67.488281 143.789062 67.28125 144.613281 67.035156 145.425781 C 66.789062 146.242188 66.5 147.039062 66.175781 147.824219 C 65.851562 148.613281 65.488281 149.378906 65.085938 150.128906 C 64.6875 150.878906 64.25 151.605469 63.777344 152.3125 C 63.304688 153.019531 62.796875 153.703125 62.257812 154.359375 C 61.71875 155.019531 61.148438 155.648438 60.546875 156.25 C 59.945312 156.851562 59.316406 157.421875 58.660156 157.960938 C 58.003906 158.5 57.320312 159.003906 56.613281 159.476562 C 55.90625 159.949219 55.179688 160.386719 54.429688 160.789062 C 53.679688 161.1875 52.910156 161.550781 52.125 161.875 C 51.339844 162.203125 50.539062 162.488281 49.726562 162.734375 C 48.914062 162.980469 48.089844 163.1875 47.253906 163.355469 C 46.421875 163.519531 45.582031 163.644531 44.734375 163.726562 C 43.886719 163.8125 43.039062 163.851562 42.1875 163.851562 C 41.339844 163.851562 40.492188 163.8125 39.644531 163.726562 C 38.796875 163.644531 37.957031 163.519531 37.125 163.355469 C 36.289062 163.1875 35.464844 162.980469 34.652344 162.734375 C 33.839844 162.488281 33.039062 162.203125 32.253906 161.875 C 31.46875 161.550781 30.699219 161.1875 29.949219 160.789062 C 29.199219 160.386719 28.472656 159.949219 27.765625 159.476562 C 27.058594 159.003906 26.375 158.5 25.71875 157.960938 C 25.0625 157.421875 24.433594 156.851562 23.832031 156.25 C 23.230469 155.648438 22.660156 155.019531 22.121094 154.359375 C 21.582031 153.703125 21.074219 153.019531 20.601562 152.3125 C 20.128906 151.605469 19.691406 150.878906 19.292969 150.128906 C 18.890625 149.378906 18.527344 148.613281 18.203125 147.824219 C 17.878906 147.039062 17.589844 146.242188 17.34375 145.425781 C 17.097656 144.613281 16.890625 143.789062 16.726562 142.957031 C 16.558594 142.121094 16.433594 141.28125 16.351562 140.433594 C 16.269531 139.589844 16.226562 138.742188 16.226562 137.890625 C 16.226562 137.039062 16.269531 136.191406 16.351562 135.34375 C 16.433594 134.5 16.558594 133.660156 16.726562 132.824219 C 16.890625 131.992188 17.097656 131.167969 17.34375 130.355469 C 17.589844 129.539062 17.878906 128.738281 18.203125 127.953125 C 18.527344 127.167969 18.890625 126.402344 19.292969 125.652344 C 19.691406 124.902344 20.128906 124.171875 20.601562 123.464844 C 21.074219 122.757812 21.582031 122.078125 22.121094 121.417969 C 22.660156 120.761719 23.230469 120.132812 23.832031 119.53125 C 24.433594 118.929688 25.0625 118.359375 25.71875 117.820312 C 26.375 117.28125 27.058594 116.773438 27.765625 116.304688 C 28.472656 115.832031 29.199219 115.394531 29.949219 114.992188 C 30.699219 114.59375 31.46875 114.230469 32.253906 113.902344 C 33.039062 113.578125 33.839844 113.292969 34.652344 113.046875 C 35.464844 112.796875 36.289062 112.59375 37.125 112.425781 C 37.957031 112.261719 38.796875 112.136719 39.644531 112.050781 C 40.492188 111.96875 41.339844 111.925781 42.1875 111.925781 C 43.039062 111.925781 43.886719 111.96875 44.734375 112.050781 C 45.582031 112.136719 46.421875 112.261719 47.253906 112.425781 C 48.089844 112.59375 48.914062 112.796875 49.726562 113.046875 C 50.539062 113.292969 51.339844 113.578125 52.125 113.902344 C 52.910156 114.230469 53.679688 114.59375 54.429688 114.992188 C 55.179688 115.394531 55.90625 115.832031 56.613281 116.304688 C 57.320312 116.773438 58.003906 117.28125 58.660156 117.820312 C 59.316406 118.359375 59.945312 118.929688 60.546875 119.53125 C 61.148438 120.132812 61.71875 120.761719 62.257812 121.417969 C 62.796875 122.078125 63.304688 122.757812 63.777344 123.464844 C 64.25 124.171875 64.6875 124.902344 65.085938 125.652344 C 65.488281 126.402344 65.851562 127.167969 66.175781 127.953125 C 66.5 128.738281 66.789062 129.539062 67.035156 130.355469 C 67.28125 131.167969 67.488281 131.992188 67.652344 132.824219 C 67.820312 133.660156 67.945312 134.5 68.027344 135.34375 C 68.109375 136.191406 68.152344 137.039062 68.152344 137.890625 Z M 68.152344 137.890625 " fill-opacity="1" fill-rule="nonzero"/></g><g clip-path="url(#665c8c7cd0)"><path fill="#f2d43d" d="M 134.828125 241.859375 C 134.828125 242.707031 134.785156 243.554688 134.703125 244.402344 C 134.621094 245.25 134.496094 246.089844 134.328125 246.921875 C 134.164062 247.757812 133.957031 248.582031 133.710938 249.394531 C 133.464844 250.207031 133.175781 251.007812 132.851562 251.792969 C 132.527344 252.578125 132.164062 253.347656 131.761719 254.097656 C 131.363281 254.847656 130.925781 255.574219 130.453125 256.28125 C 129.980469 256.988281 129.472656 257.671875 128.933594 258.328125 C 128.394531 258.984375 127.824219 259.613281 127.222656 260.214844 C 126.621094 260.816406 125.992188 261.386719 125.335938 261.925781 C 124.679688 262.464844 123.996094 262.972656 123.289062 263.445312 C 122.582031 263.917969 121.855469 264.355469 121.105469 264.753906 C 120.355469 265.15625 119.585938 265.519531 118.800781 265.84375 C 118.015625 266.167969 117.214844 266.457031 116.402344 266.703125 C 115.589844 266.949219 114.765625 267.15625 113.929688 267.320312 C 113.097656 267.488281 112.257812 267.613281 111.410156 267.695312 C 110.5625 267.777344 109.714844 267.820312 108.867188 267.820312 C 108.015625 267.820312 107.167969 267.777344 106.320312 267.695312 C 105.472656 267.613281 104.632812 267.488281 103.800781 267.320312 C 102.964844 267.15625 102.140625 266.949219 101.328125 266.703125 C 100.515625 266.457031 99.714844 266.167969 98.929688 265.84375 C 98.144531 265.519531 97.375 265.15625 96.625 264.753906 C 95.875 264.355469 95.148438 263.917969 94.441406 263.445312 C 93.734375 262.972656 93.050781 262.464844 92.394531 261.925781 C 91.738281 261.386719 91.109375 260.816406 90.507812 260.214844 C 89.90625 259.613281 89.335938 258.984375 88.796875 258.328125 C 88.257812 257.671875 87.75 256.988281 87.277344 256.28125 C 86.804688 255.574219 86.367188 254.847656 85.96875 254.097656 C 85.566406 253.347656 85.203125 252.578125 84.878906 251.792969 C 84.554688 251.007812 84.265625 250.207031 84.019531 249.394531 C 83.773438 248.582031 83.566406 247.757812 83.402344 246.921875 C 83.234375 246.089844 83.109375 245.25 83.027344 244.402344 C 82.945312 243.554688 82.902344 242.707031 82.902344 241.859375 C 82.902344 241.007812 82.945312 240.160156 83.027344 239.3125 C 83.109375 238.464844 83.234375 237.625 83.402344 236.792969 C 83.566406 235.957031 83.773438 235.132812 84.019531 234.320312 C 84.265625 233.507812 84.554688 232.707031 84.878906 231.921875 C 85.203125 231.136719 85.566406 230.367188 85.96875 229.617188 C 86.367188 228.867188 86.804688 228.140625 87.277344 227.433594 C 87.75 226.726562 88.257812 226.042969 88.796875 225.386719 C 89.335938 224.730469 89.90625 224.101562 90.507812 223.5 C 91.109375 222.898438 91.738281 222.328125 92.394531 221.789062 C 93.050781 221.25 93.734375 220.742188 94.441406 220.269531 C 95.148438 219.796875 95.875 219.359375 96.625 218.960938 C 97.375 218.558594 98.144531 218.195312 98.929688 217.871094 C 99.714844 217.546875 100.515625 217.257812 101.328125 217.011719 C 102.140625 216.765625 102.964844 216.558594 103.800781 216.394531 C 104.632812 216.226562 105.472656 216.101562 106.320312 216.019531 C 107.167969 215.9375 108.015625 215.894531 108.867188 215.894531 C 109.714844 215.894531 110.5625 215.9375 111.410156 216.019531 C 112.257812 216.101562 113.097656 216.226562 113.929688 216.394531 C 114.765625 216.558594 115.589844 216.765625 116.402344 217.011719 C 117.214844 217.257812 118.015625 217.546875 118.800781 217.871094 C 119.585938 218.195312 120.355469 218.558594 121.105469 218.960938 C 121.855469 219.359375 122.582031 219.796875 123.289062 220.269531 C 123.996094 220.742188 124.679688 221.25 125.335938 221.789062 C 125.992188 222.328125 126.621094 222.898438 127.222656 223.5 C 127.824219 224.101562 128.394531 224.730469 128.933594 225.386719 C 129.472656 226.042969 129.980469 226.726562 130.453125 227.433594 C 130.925781 228.140625 131.363281 228.867188 131.761719 229.617188 C 132.164062 230.367188 132.527344 231.136719 132.851562 231.921875 C 133.175781 232.707031 133.464844 233.507812 133.710938 234.320312 C 133.957031 235.132812 134.164062 235.957031 134.328125 236.792969 C 134.496094 237.625 134.621094 238.464844 134.703125 239.3125 C 134.785156 240.160156 134.828125 241.007812 134.828125 241.859375 Z M 134.828125 241.859375 " fill-opacity="1" fill-rule="nonzero"/></g><g clip-path="url(#c7238d11f9)"><path fill="#f2d43d" d="M 51.925781 344.933594 C 51.925781 345.78125 51.882812 346.628906 51.800781 347.476562 C 51.71875 348.324219 51.59375 349.164062 51.425781 349.996094 C 51.261719 350.832031 51.054688 351.65625 50.808594 352.46875 C 50.5625 353.28125 50.273438 354.082031 49.949219 354.867188 C 49.625 355.652344 49.261719 356.421875 48.859375 357.171875 C 48.460938 357.921875 48.023438 358.648438 47.550781 359.355469 C 47.078125 360.0625 46.570312 360.746094 46.03125 361.402344 C 45.492188 362.058594 44.921875 362.6875 44.320312 363.289062 C 43.71875 363.890625 43.089844 364.460938 42.433594 365 C 41.777344 365.539062 41.09375 366.046875 40.386719 366.519531 C 39.679688 366.992188 38.953125 367.429688 38.203125 367.828125 C 37.453125 368.230469 36.683594 368.59375 35.898438 368.917969 C 35.113281 369.242188 34.3125 369.53125 33.5 369.777344 C 32.6875 370.023438 31.863281 370.230469 31.027344 370.394531 C 30.195312 370.5625 29.355469 370.6875 28.507812 370.769531 C 27.660156 370.851562 26.8125 370.894531 25.964844 370.894531 C 25.113281 370.894531 24.265625 370.851562 23.417969 370.769531 C 22.570312 370.6875 21.730469 370.5625 20.898438 370.394531 C 20.0625 370.230469 19.238281 370.023438 18.425781 369.777344 C 17.613281 369.53125 16.8125 369.242188 16.027344 368.917969 C 15.242188 368.59375 14.472656 368.230469 13.722656 367.828125 C 12.972656 367.429688 12.246094 366.992188 11.539062 366.519531 C 10.832031 366.046875 10.148438 365.539062 9.492188 365 C 8.835938 364.460938 8.207031 363.890625 7.605469 363.289062 C 7.003906 362.6875 6.433594 362.058594 5.894531 361.402344 C 5.355469 360.746094 4.847656 360.0625 4.375 359.355469 C 3.902344 358.648438 3.464844 357.921875 3.066406 357.171875 C 2.664062 356.421875 2.300781 355.652344 1.976562 354.867188 C 1.652344 354.082031 1.363281 353.28125 1.117188 352.46875 C 0.871094 351.65625 0.664062 350.832031 0.5 349.996094 C 0.332031 349.164062 0.207031 348.324219 0.125 347.476562 C 0.0429688 346.628906 0 345.78125 0 344.933594 C 0 344.082031 0.0429688 343.234375 0.125 342.386719 C 0.207031 341.539062 0.332031 340.699219 0.5 339.867188 C 0.664062 339.03125 0.871094 338.207031 1.117188 337.394531 C 1.363281 336.582031 1.652344 335.78125 1.976562 334.996094 C 2.300781 334.210938 2.664062 333.441406 3.066406 332.691406 C 3.464844 331.941406 3.902344 331.214844 4.375 330.507812 C 4.847656 329.800781 5.355469 329.117188 5.894531 328.460938 C 6.433594 327.804688 7.003906 327.175781 7.605469 326.574219 C 8.207031 325.972656 8.835938 325.402344 9.492188 324.863281 C 10.148438 324.324219 10.832031 323.816406 11.539062 323.34375 C 12.246094 322.871094 12.972656 322.433594 13.722656 322.035156 C 14.472656 321.632812 15.242188 321.269531 16.027344 320.945312 C 16.8125 320.621094 17.613281 320.332031 18.425781 320.085938 C 19.238281 319.839844 20.0625 319.632812 20.898438 319.46875 C 21.730469 319.300781 22.570312 319.175781 23.417969 319.09375 C 24.265625 319.011719 25.113281 318.96875 25.964844 318.96875 C 26.8125 318.96875 27.660156 319.011719 28.507812 319.09375 C 29.355469 319.175781 30.195312 319.300781 31.027344 319.46875 C 31.863281 319.632812 32.6875 319.839844 33.5 320.085938 C 34.3125 320.332031 35.113281 320.621094 35.898438 320.945312 C 36.683594 321.269531 37.453125 321.632812 38.203125 322.035156 C 38.953125 322.433594 39.679688 322.871094 40.386719 323.34375 C 41.09375 323.816406 41.777344 324.324219 42.433594 324.863281 C 43.089844 325.402344 43.71875 325.972656 44.320312 326.574219 C 44.921875 327.175781 45.492188 327.804688 46.03125 328.460938 C 46.570312 329.117188 47.078125 329.800781 47.550781 330.507812 C 48.023438 331.214844 48.460938 331.941406 48.859375 332.691406 C 49.261719 333.441406 49.625 334.210938 49.949219 334.996094 C 50.273438 335.78125 50.5625 336.582031 50.808594 337.394531 C 51.054688 338.207031 51.261719 339.03125 51.425781 339.867188 C 51.59375 340.699219 51.71875 341.539062 51.800781 342.386719 C 51.882812 343.234375 51.925781 344.082031 51.925781 344.933594 Z M 51.925781 344.933594 " fill-opacity="1" fill-rule="nonzero"/></g><g clip-path="url(#62bc0823ef)"><path fill="#f2d43d" d="M 151.757812 30.066406 C 151.757812 30.914062 151.71875 31.765625 151.632812 32.609375 C 151.550781 33.457031 151.425781 34.296875 151.261719 35.128906 C 151.09375 35.964844 150.886719 36.789062 150.640625 37.601562 C 150.394531 38.414062 150.109375 39.214844 149.78125 40 C 149.457031 40.785156 149.09375 41.554688 148.691406 42.304688 C 148.292969 43.054688 147.855469 43.78125 147.382812 44.488281 C 146.910156 45.195312 146.40625 45.878906 145.867188 46.535156 C 145.324219 47.191406 144.753906 47.824219 144.15625 48.421875 C 143.554688 49.023438 142.921875 49.59375 142.265625 50.132812 C 141.609375 50.675781 140.925781 51.179688 140.21875 51.652344 C 139.511719 52.125 138.785156 52.5625 138.035156 52.960938 C 137.285156 53.363281 136.515625 53.726562 135.730469 54.050781 C 134.945312 54.378906 134.144531 54.664062 133.332031 54.910156 C 132.519531 55.15625 131.695312 55.363281 130.859375 55.527344 C 130.027344 55.695312 129.1875 55.820312 128.339844 55.902344 C 127.496094 55.984375 126.644531 56.027344 125.796875 56.027344 C 124.945312 56.027344 124.097656 55.984375 123.25 55.902344 C 122.40625 55.820312 121.566406 55.695312 120.730469 55.527344 C 119.898438 55.363281 119.074219 55.15625 118.257812 54.910156 C 117.445312 54.664062 116.644531 54.378906 115.859375 54.050781 C 115.074219 53.726562 114.308594 53.363281 113.558594 52.960938 C 112.808594 52.5625 112.078125 52.125 111.371094 51.652344 C 110.664062 51.179688 109.980469 50.675781 109.324219 50.132812 C 108.667969 49.59375 108.039062 49.023438 107.4375 48.421875 C 106.835938 47.824219 106.265625 47.191406 105.726562 46.535156 C 105.1875 45.878906 104.679688 45.195312 104.207031 44.488281 C 103.734375 43.78125 103.300781 43.054688 102.898438 42.304688 C 102.496094 41.554688 102.132812 40.785156 101.808594 40 C 101.484375 39.214844 101.199219 38.414062 100.949219 37.601562 C 100.703125 36.789062 100.496094 35.964844 100.332031 35.128906 C 100.164062 34.296875 100.042969 33.457031 99.957031 32.609375 C 99.875 31.765625 99.832031 30.914062 99.832031 30.066406 C 99.832031 29.214844 99.875 28.367188 99.957031 27.519531 C 100.042969 26.675781 100.164062 25.832031 100.332031 25 C 100.496094 24.164062 100.703125 23.34375 100.949219 22.527344 C 101.199219 21.714844 101.484375 20.914062 101.808594 20.128906 C 102.132812 19.34375 102.496094 18.578125 102.898438 17.828125 C 103.300781 17.078125 103.734375 16.347656 104.207031 15.640625 C 104.679688 14.933594 105.1875 14.25 105.726562 13.59375 C 106.265625 12.9375 106.835938 12.308594 107.4375 11.707031 C 108.039062 11.105469 108.667969 10.535156 109.324219 9.996094 C 109.980469 9.457031 110.664062 8.949219 111.371094 8.476562 C 112.078125 8.003906 112.808594 7.570312 113.558594 7.167969 C 114.308594 6.765625 115.074219 6.402344 115.859375 6.078125 C 116.644531 5.753906 117.445312 5.46875 118.257812 5.21875 C 119.074219 4.972656 119.898438 4.765625 120.730469 4.601562 C 121.566406 4.433594 122.40625 4.3125 123.25 4.226562 C 124.097656 4.144531 124.945312 4.101562 125.796875 4.101562 C 126.644531 4.101562 127.496094 4.144531 128.339844 4.226562 C 129.1875 4.3125 130.027344 4.433594 130.859375 4.601562 C 131.695312 4.765625 132.519531 4.972656 133.332031 5.21875 C 134.144531 5.46875 134.945312 5.753906 135.730469 6.078125 C 136.515625 6.402344 137.285156 6.765625 138.035156 7.167969 C 138.785156 7.570312 139.511719 8.003906 140.21875 8.476562 C 140.925781 8.949219 141.609375 9.457031 142.265625 9.996094 C 142.921875 10.535156 143.554688 11.105469 144.15625 11.707031 C 144.753906 12.308594 145.324219 12.9375 145.867188 13.59375 C 146.40625 14.25 146.910156 14.933594 147.382812 15.640625 C 147.855469 16.347656 148.292969 17.078125 148.691406 17.828125 C 149.09375 18.578125 149.457031 19.34375 149.78125 20.128906 C 150.109375 20.914062 150.394531 21.714844 150.640625 22.527344 C 150.886719 23.34375 151.09375 24.164062 151.261719 25 C 151.425781 25.832031 151.550781 26.675781 151.632812 27.519531 C 151.71875 28.367188 151.757812 29.214844 151.757812 30.066406 Z M 151.757812 30.066406 " fill-opacity="1" fill-rule="nonzero"/></g></svg>